<?xml version="1.0" standalone="no"?>
<!DOCTYPE svg PUBLIC "-//W3C//DTD SVG 20010904//EN"
 "http://www.w3.org/TR/2001/REC-SVG-20010904/DTD/svg10.dtd">
<svg version="1.0" xmlns="http://www.w3.org/2000/svg"
 width="320.000000pt" height="320.000000pt" viewBox="0 0 320.000000 320.000000"
 preserveAspectRatio="xMidYMid meet">

<g transform="translate(0.000000,320.000000) scale(0.100000,-0.100000)"
fill="#000000" stroke="none">
<path d="M0 1600 l0 -1600 1600 0 1600 0 0 1600 0 1600 -1600 0 -1600 0 0
-1600z m1261 374 c61 -31 74 -121 39 -260 -26 -101 -50 -161 -122 -308 -33
-65 -56 -122 -51 -126 4 -4 60 -28 123 -53 128 -51 272 -82 337 -73 54 7 119
40 133 66 13 24 52 26 70 5 18 -22 5 -59 -35 -93 -92 -81 -243 -66 -539 52
l-131 53 -49 -54 c-66 -73 -133 -106 -211 -106 -157 -1 -219 130 -103 216 59
44 147 60 243 43 l40 -7 47 78 c103 171 171 351 172 458 l1 70 -41 -1 c-32 0
-79 -21 -215 -95 -96 -52 -211 -111 -256 -132 -231 -104 -421 -106 -483 -4
-24 39 -26 100 -4 121 34 34 82 8 70 -39 -9 -37 18 -93 49 -101 45 -11 167 2
240 27 64 21 151 64 458 223 118 61 163 69 218 40z m1508 -71 c7 -13 2 -28
-20 -60 -17 -24 -26 -44 -22 -45 4 0 13 -2 18 -3 6 -2 16 -3 23 -4 6 0 12 -10
12 -21 0 -17 -7 -20 -45 -20 -41 0 -46 -3 -73 -42 -68 -102 -192 -337 -192
-365 0 -46 86 25 156 128 44 64 65 81 78 61 8 -14 -49 -105 -103 -164 -100
-110 -191 -118 -191 -17 l0 40 -50 -50 c-70 -71 -115 -78 -144 -25 -6 10 -12
21 -14 23 -1 3 -12 -5 -25 -17 -32 -30 -74 -44 -97 -32 -24 13 -40 41 -40 71
0 19 -7 15 -54 -30 -71 -66 -112 -69 -135 -7 -8 20 -8 40 0 69 22 83 117 247
143 247 7 0 12 10 12 23 -1 18 5 23 32 25 37 4 56 -23 30 -42 -8 -6 -13 -16
-11 -22 2 -6 -20 -49 -48 -95 -60 -96 -104 -187 -95 -196 10 -11 75 58 127
135 27 39 55 72 62 72 7 0 25 14 41 30 33 36 96 70 126 70 12 0 31 -5 42 -11
14 -8 23 -8 31 0 16 16 67 13 73 -4 3 -8 -20 -56 -52 -107 -63 -103 -99 -176
-90 -186 10 -10 94 79 138 146 22 34 44 62 49 62 5 0 23 28 40 62 17 34 42 79
55 100 13 21 24 39 24 42 0 2 -29 6 -65 8 -73 4 -101 22 -90 57 8 25 34 27 74
6 16 -8 47 -17 69 -21 39 -6 40 -5 86 54 25 33 52 63 58 65 26 11 47 7 57 -10z
m-1201 -279 c28 -20 29 -64 1 -114 -27 -47 -69 -72 -115 -68 -29 2 -38 -2 -50
-22 -18 -34 -18 -89 1 -96 44 -17 112 39 185 151 23 36 46 65 50 65 4 0 21 23
38 50 26 42 36 50 61 50 16 0 33 -4 36 -10 4 -6 13 -5 25 3 24 14 53 0 59 -29
2 -10 9 -23 17 -27 20 -11 17 -33 -5 -49 -10 -7 -33 -42 -51 -78 -54 -108
-114 -170 -165 -170 -29 0 -55 38 -55 83 l-1 42 -30 -37 c-86 -105 -212 -121
-254 -31 -38 81 37 222 147 277 60 30 75 32 106 10z"/>
<path d="M782 1269 c-24 -12 -49 -34 -58 -51 -14 -27 -14 -32 1 -54 17 -27 69
-33 108 -13 32 16 137 121 131 131 -11 18 -138 9 -182 -13z"/>
<path d="M2260 1570 c-75 -75 -164 -220 -146 -238 13 -12 95 82 135 156 47 86
52 123 11 82z"/>
<path d="M1495 1547 c-46 -49 -55 -67 -31 -67 22 0 62 37 76 70 20 49 4 47
-45 -3z"/>
<path d="M1722 1490 c-55 -113 -70 -160 -54 -160 20 0 73 63 103 123 25 48 29
64 20 81 -5 12 -12 30 -14 41 -3 14 -20 -13 -55 -85z"/>
</g>
</svg>
